<svg width="328" height="290" fill="none" xmlns="http://www.w3.org/2000/svg"><path d="M322 267.8h-26v.2h26v-.2ZM229.3 270h-6.8v.1h6.8v-.2ZM295.3 260.6h-15v.2h15v-.2ZM45.5 262H11.8v.1h33.7v-.2ZM57.4 262h-5v.1h5v-.2ZM146.6 265.2H73.5v.2h73v-.2Z" fill="#EBEBEB"/><path d="M156.1 25.2a64.3 64.3 0 0 0-16 46.5c1 16.9 7.2 33 14.8 48.1 6.7 13.3 14.6 28.3 9.2 42-3 7.7-10 13.4-17.7 16.6a73 73 0 0 1-24.4 4.5c-14.1.7-28.4 0-42.2 3.4-13.8 3.3-27.3 11.4-32.6 24.5-6.3 15.4.8 33.8 13.4 44.7 12.5 11 29.4 15.6 45.9 18 23.1 3.2 46.8 2.4 69.7-2.4a129.5 129.5 0 0 0 51.4-21.8 75.3 75.3 0 0 0 29.9-46c3.2-18.3-3-38.7-17.7-50.4-6-4.8-13.4-8.2-18.8-13.8-5.3-5.7-8-15.1-3-21.1 3.2-4 8.7-5.2 13.8-5.8 25.2-3 53.1 2.2 74.2-11.9a51 51 0 0 0 21.5-36.2A55.7 55.7 0 0 0 317.1 23C292.3-7.8 186.4-8.3 156 25.2Z" fill="#E5F7FF"/><path d="M166 290c83.5 0 151.2-4 151.2-8.8 0-4.9-67.7-8.8-151.3-8.8-83.5 0-151.2 4-151.2 8.8 0 4.9 67.7 8.8 151.2 8.8Z" fill="#E5F7FF"/><path d="m153.5 157.9 2-11.2 3.8 1-5.8 10.2ZM154.8 161.5l11-3.2-1.5-3.7-9.5 6.9ZM156.8 157.3l6.2-11.8 4.2 3-10.4 8.8ZM53.5 175h-5a.4.4 0 0 1-.3-.5c0-.2.1-.4.4-.4h4.9c.2 0 .4.2.4.4 0 .3-.2.4-.4.4ZM45.3 175H20.5a.4.4 0 0 1-.4-.5c0-.2.2-.4.4-.4h24.8c.2 0 .4.2.4.4 0 .3-.2.4-.4.4ZM133 219.9l-.2-.1a.4.4 0 0 1 0-.6l2.3-2.5h.5c.2.2.2.4 0 .6l-2.3 2.5h-.2ZM112 239.8c-.2 0-.4 0-.4-.2-.1-.2 0-.4.1-.5a92.4 92.4 0 0 0 18.8-17.4.4.4 0 0 1 .6.4 91.2 91.2 0 0 1-19.2 17.7Z" fill="#00BDD3"/><path d="m168 235.5 5.6-4.6-14-13.2-6 5 14.5 12.8Z" fill="#F6B69E"/><path d="M178.1 229.2c-.3-.3-1.1-.1-1.9 0l-1.1.4-.7.3-.6.3c-.1 0-.2 0-.2.2l.2.1c.7.2 1.6.4 2.4.4h1.2l.7-.4c.2-.2.4-.5.3-.8 0-.2 0-.4-.3-.5Zm0 .5-.3.6-.6.2h-1l-1.5-.1h-.3a9.8 9.8 0 0 1 3.2-1h.3l.2.3Z" fill="#00BDD3"/><path d="M175.6 226.3a1.3 1.3 0 0 0-1 .8 5.3 5.3 0 0 0-.2 2.9l.2.1.5-.5.7-1c.4-.7.8-1.6.6-2-.1-.2-.3-.4-.8-.3Zm.5.4c0 .3-.2 1-.6 1.7l-.8 1.2c0-.5-.1-1.5.1-2.2l.2-.4.5-.4h.1l.5.1Z" fill="#00BDD3"/><path d="m172.9 230.6-7 3.5c-.3.2-.4.5-.3.8l2 6.5c.3.6 1 1 1.6.7h.1c12-4.2 15.7-7.2 17-7.9 3.5-1.9 1.5-4.4.2-4.1-6 1.4-8 1-10.6.4-1.4-.2-2.6 0-3 .1Z" fill="#0E1F3D"/><path opacity=".2" d="m159.6 217.7 7.1 6.3-6 5-7-6.2 5.9-5.1Z" fill="#000"/><path d="m157.4 229 9-8.2-2-3.4-10.4 8.8 3.4 2.8Z" fill="#00BDD3"/><path opacity=".5" d="m157.4 229 9-8.2-2-3.4-10.4 8.8 3.4 2.8Z" fill="#fff"/><path d="m163 218.6-1.2 1-1.8 1.5-1.1 1-3.1 2.6-.6.5s-12.7-7.1-19.8-13.2c-4.9-4.2-5.3-5.8-5.8-5.4-6.9 5.2-27.1 23.1-38.6 32.4l-1.1.1c-6.2.5-11-.2-14.7-1.6 0-5 4.2-16.5 4.6-17.7 0 0 16.9-16.7 44.3-31l.9-.3a18.8 18.8 0 0 1 5.2-1.4c1.3 0 2.5.2 3.6.6a13.7 13.7 0 0 1 3.5 1.8c.9.5 1.7 1 2.4 1.7 1.8 1.3 15 18.3 22.2 26.2l1 1.2Z" fill="#00BDD3"/><path opacity=".1" d="m163 218.6-1.2 1-1.8 1.5-1.1 1-3.1 2.6-.6.5s-12.7-7.1-19.8-13.2c-4.9-4.2-5.3-5.8-5.8-5.4-6.9 5.2-27.1 23.1-38.6 32.4l-1.1.1c-6.2.5-11-.2-14.7-1.6 0-5 4.2-16.5 4.6-17.7 0 0 16.9-16.7 44.3-31l.9-.3a18.8 18.8 0 0 1 5.2-1.4c1.3 0 2.5.2 3.6.6a13.7 13.7 0 0 1 3.5 1.8c.9.5 1.7 1 2.4 1.7 1.8 1.3 15 18.3 22.2 26.2l1 1.2Z" fill="#000"/><path d="M72.6 147c1 4.8 2.2 11.9-1.2 15.2 4.2 7.3 9.1 14 14.8 20.1 7.3-12.6.4-20.4.4-20.4-5.5-1.2-5.4-3.4-4.5-7.2l-9.5-7.7Z" fill="#F6B69E"/><path d="M68 162.8a6.1 6.1 0 0 1 2.4-3.2c1.1-.8 12.5-1 15.4 0 1.7.5 3.2 1.7 4.1 3.2H68Z" fill="#00BDD3"/><path d="m120.4 182 3-1.2.1 4.7s-1.3 1.2-2.8 1.7a2 2 0 0 1-2.5-2.3 4.2 4.2 0 0 1 2.2-2.8Z" fill="#F6B69E"/><path d="m127.1 182.1-.1 1.8c0 .5-.5 1-1 1l-2.5.6-.1-4.7h2.5c.7 0 1.2.5 1.2 1.2v.1ZM83.1 195.7c4.5 2.1 9.9 3.4 15.2 2.5 6.2-1 17.1-7.3 21.9-11l-1.6-2.3c-2.4.5-21.7 10.3-34.2 1.5-2.3-1.7-11.4-8.5-14.7-8.3-5.2.2-4.7 5.7-2.5 8a92 92 0 0 0 16 9.6Z" fill="#F6B69E"/><g opacity=".2" fill="#000"><path opacity=".2" d="M127 183.9c0 .5-.5 1-1 1l-2.5.6s-1.4 1.3-2.9 1.7l-.4.1a68.1 68.1 0 0 1-22 10.9c-5.2.9-10.6-.4-15-2.5-3.7-1.8-13.4-7-16-9.7-2.2-2.2-2.7-7.7 2.5-8 3.3 0 12.4 6.7 14.7 8.4 12 8.4 30-.1 33.8-1.4v-.1a4.2 4.2 0 0 1 2.2-2.8l3-1.3h2.5c.7 0 1.2.5 1.2 1.2v.1l-.1 1.8ZM123.4 180.8Z"/></g><path d="M99.5 170.6c6.6 14.6-8.7 18.7-1.7 42.6l-33.4.8c.2-12.8 4.8-10-1.2-34-.5-2.1-1.4-8 .8-13.3.8-2 2.4-3.8 4.3-4.9 2.5-1.3 13.4-.3 18.3 0 5.4-.7 12 7 12.9 8.8Z" fill="#00BDD3"/><path opacity=".5" d="M99.5 170.6c6.6 14.6-8.7 18.7-1.7 42.6l-33.4.8c.2-12.8 4.8-10-1.2-34-.5-2.1-1.4-8 .8-13.3.8-2 2.4-3.8 4.3-4.9 2.5-1.3 13.4-.3 18.3 0 5.4-.7 12 7 12.9 8.8Z" fill="#fff"/><path d="M93.1 141.8c0 .6.2 1.1.6 1.2.4 0 .8-.4.9-1 0-.6-.2-1.2-.6-1.2-.4 0-.8.4-.9 1Z" fill="#0E1F3D"/><path d="m93.8 140.8 1.6-.2s-1 1-1.6.2Z" fill="#0E1F3D"/><path d="M93.2 142.6s.7 2.8 1.6 4.2c-.9.7-2.2.1-2.2.1l.6-4.3Z" fill="#A02724"/><path d="m95.3 137.5.3-.3c0-.2-.2-.3-.4-.4-1.1-.2-2.3.2-3.1 1-.2.2-.2.4 0 .5.1.2.3.2.5 0a3 3 0 0 1 2.5-.8h.2Z" fill="#0E1F3D"/><path d="M73 136.8c-.7 7.5-1.2 10.7 2 15.1 5 6.7 14.5 5.8 17.3-1.5 2.7-6.5 3.3-17.8-3.7-21.8a10.4 10.4 0 0 0-15.7 8.2Z" fill="#F6B69E"/><path d="M92.5 150c-.6-.5-1-1.1-1.2-1.9v-.2c.1 0 .2 0 .2.2a4 4 0 0 0 1.1 1.6v.3ZM67.5 127c-3 3.8-4.2 4.8-.6 15.3 1.4 4.1 5.6 9.7 7.6 10.2 3.7 1 7.2-1.6 10-4.2 2.4-2.3 4.7-4.7 6.1-7.6 1.5-3 2-6.5.8-9.6-1.3-3.3-6-6.2-9.4-7-4-.8-12.1-.4-14.5 2.8Z" fill="#0E1F3D"/><path d="M90.2 141.3s1 1.6-.2 2.7v-2l.2-.7Z" fill="#0E1F3D"/><path d="M90.2 141.3s.4 2.4-1.7 3.3l1.1-2.6.6-.7ZM76.8 151.6s-2.2 1-1.9 3.2l1.6-2.3.3-.9Z" fill="#0E1F3D"/><path d="M77 151.7s-1.8 1.7-.7 3.6l.7-2.7v-1ZM93.3 138.2c.8-.8 1.6-1.6 2.1-2.6.6-1 1-2.1.8-3.3-.2-1.4-1.3-2.6-2.6-3.3-1.3-.7-2.7-1-4.1-1.4-.8-.1-1.5-.3-2.2 0-.6.4-.8 1.2-.8 1.9s.3 1.3.6 2c1 2.5 1.6 5.1 2 7.8.3 1.3.1 2.2 1.5 1.7.9-.4 2-2.1 2.7-2.8Z" fill="#0E1F3D"/><path d="M82.8 142c-.1 1.7.5 3.4 1.7 4.7 1.6 1.7 3.6.6 4.2-1.6.5-1.9.3-5-1.8-6-2-.9-4 .7-4.1 2.8ZM171.3 239l6-5.8-11.7-14.6-7.3 4.3 13 16.1Z" fill="#F6B69E"/><path d="M183.4 231.4c-.6-.3-2 .5-3 1.2l-.7.4-.2.1a20.8 20.8 0 0 0-.5.5c0 .1 0 .2.2.2l2.1-.1h.5a3 3 0 0 0 1.9-.9c.2-.3.3-.6.2-1 0-.2-.2-.3-.5-.4Zm0 .5c.2.3.1.5 0 .7-.2.3-.6.5-1.2.6l-1.6.2h-.8l.2-.2h.2c.9-.7 1.8-1.1 2.8-1.4h.3l.2.1Z" fill="#00BDD3"/><path d="M180.1 228.9c-.4.1-.7.4-.8.8-.5 1.2.2 3 .4 3.3l.1.2h.2v-.1l.4-.5c.5-1.1 1-3 .6-3.5-.1-.2-.4-.4-.9-.2Zm-.2 3.7c-.2-.6-.6-2-.2-2.8 0-.2.2-.4.4-.5h.2c.3-.2.4 0 .4 0 .3.4-.2 2.3-.8 3.3Z" fill="#00BDD3"/><path opacity=".2" d="m165 217.7 5.5 7-7.4 4.1-5.6-6.8 7.5-4.3Z" fill="#000"/><path d="m64.1 211.4-.8 3c0 .3.2.5.6.5l34.4-.8c.3 0 .5-.2.5-.4l-.8-3.1c0-.2-.3-.4-.6-.4l-32.7 1c-.3 0-.5 0-.6.2Z" fill="#0E1F3D"/><path d="m94.7 214.4-.9.1-.3-.1v-4l.3-.2h.9l.3.1v4l-.3.1ZM82.4 214.6l-1 .1s-.2 0-.2-.2v-3.9s.1-.2.3-.2l.9-.1c.2 0 .3 0 .3.2v3.9s-.1.2-.3.2Z" fill="#00BDD3"/><path d="m82.4 214.6-1 .1s-.2 0-.2-.2v-3.9s.1-.2.3-.2l.9-.1c.2 0 .3 0 .3.2v3.9s-.1.2-.3.2Z" fill="#00BDD3"/><path d="m169.6 220.8-1.5.9-2.6 1.5-2.4 1.3-2.4 1.3-.9.6-.6-.5-.5-.3-2.3-1.8a53.5 53.5 0 0 1-16-18.1l-6 7.1c-9.8 11.8-25 28.5-43.3 30.6l-1.2.1c-6.1.6-11 0-14.7-1.4-9.5-3.5-12.2-11.8-11.5-18.9 0-3.3.7-9.2.7-9.2h34.7a103.6 103.6 0 0 1 25.5-21.4l.9-.5a40.3 40.3 0 0 1 11.6-4.3l2-.2a12 12 0 0 1 11.8 6.3L169 220l.5.7ZM151 185l-38.4 1.5 1-24.3 38.4-1.6-1 24.3Z" fill="#00BDD3"/><path d="m150.5 186.8-37.8 1.6c-1.1 0-2-.8-1.9-1.9l1.1-24.1c0-1 1-2 2-2l37.9-1.6c1 0 1.9.8 1.8 1.9l-1.1 24.1c0 1-1 2-2 2Z" fill="#0E1F3D"/><path d="m151 185-38.4 1.5 1-24.3 38.4-1.6-1 24.3Z" fill="#00BDD3"/><path opacity=".9" d="m151 185-38.4 1.5 1-24.3 38.4-1.6-1 24.3Z" fill="#fff"/><path opacity=".1" d="M127.3 159.8 121 188h2.5l6.2-28.3-2.4.1ZM131.2 159.7l-6.4 28.2 5-.2 6.3-28.2-5 .2Z" fill="#fff"/><path d="m138.5 187.1 12.7-.3c.2 1.5-.4 2-1.2 2l-4 .1h-2.8l-4.2.2-26.3.8-.2-1.9 26-.9Z" fill="#00BDD3"/><path d="m138.5 187.1 12.7-.3c.2 1.5-.4 2-1.2 2l-4 .1h-2.8l-4.2.2-32.6 1a1 1 0 0 1-.9-.5 1 1 0 0 1 .9-1.4l32-1Z" fill="#00BDD3"/><path opacity=".2" d="m138.5 187.1 12.7-.3c.2 1.5-.4 2-1.2 2l-4 .1h-2.8l-4.2.2-32.6 1a1 1 0 0 1-.9-.5 1 1 0 0 1 .9-1.4l32-1Z" fill="#000"/><path opacity=".2" d="m151.2 186.8.1.5c.1.8-.5 1.5-1.3 1.5l-4 .1-7.7.3.2-2 12.7-.4ZM85.1 171.3s-1.8 3.7 3.4 13.4l2.2 4c.7 1.2 5.5-1.4 6.9-3.9 0 0-9.1-5.4-12.5-13.5Z" fill="#000"/><path d="m129.2 182.6 3.7-1-.6 5.5s-5 3.4-6.8.2l.7-1.8a5 5 0 0 1 3-2.9Z" fill="#F6B69E"/><path d="m137 183.7-.4 2c-.1.7-.7 1.1-1.3 1.2l-3 .2.5-5.6 3 .5c.8.1 1.4.8 1.3 1.6v.1ZM99 192c2.6 3.5 6.1 6.3 10.3 7.1 5 1 14.4-6 18.9-10.4-.3-2-.1-3-2-3.2 0 0-5 3.6-14.2 5.7-3 .7-5-2.3-7.5-6.8-1.3-2.2-5.5-11.2-7.1-13.2-2.5-3.3-9.8-1-6.9 6.8a92 92 0 0 0 8.5 14Z" fill="#F6B69E"/><path d="M96.3 165.9c5.2 4.7 7.7 13 7.7 13l-12 7.3s-8.8-12.3-7.2-16.6c1.2-3.3 3.5-5.4 6.5-5.6a7 7 0 0 1 5 1.9ZM68.9 215l-1 .1c-.1 0-.3 0-.3-.2l.4-3.9s.1-.2.3-.2h1s.2 0 .2.2l-.3 3.9-.3.2ZM158.3 228l11.7-5.8-1-4.1-13.3 6 2.6 3.9Z" fill="#00BDD3"/><path opacity=".5" d="m158.3 228 11.7-5.8-1-4.1-13.3 6 2.6 3.9Z" fill="#fff"/><path d="m176.8 232.5-8 2.5c-.3 0-.6.4-.5.7l1 7.3c0 .7.8 1.2 1.5 1h.1c13.5-2.2 18-4.7 19.4-5.2 4-1.4 2.4-4.4 1-4.3-6.6.4-8.7-.3-11.3-1.5a6.6 6.6 0 0 0-3.2-.5ZM68.5 136.7c-2.4.3-4.8-1.5-5.5-3.8a8.7 8.7 0 0 1 1-7c1-1.6 7-5.3 9.2-1.1 4.4 8.2-4.7 11.9-4.7 11.9Z" fill="#0E1F3D"/><path d="m150.6 169-23.6 1v-2.4l23.7-1-.1 2.3Z" fill="#00BDD3"/><path opacity=".7" d="m150.6 169-23.6 1v-2.4l23.7-1-.1 2.3Z" fill="#fff"/><path d="m150.4 172.2-23.6 1 .1-2.3 23.6-1v2.3Z" fill="#00BDD3"/><path opacity=".7" d="m150.4 172.2-23.6 1 .1-2.3 23.6-1v2.3Z" fill="#fff"/><path d="m150.3 175.4-23.6 1v-2.3l23.7-1-.1 2.3Z" fill="#00BDD3"/><path opacity=".7" d="m150.3 175.4-23.6 1v-2.3l23.7-1-.1 2.3Z" fill="#fff"/><path d="m150.1 178.7-23.6 1 .1-2.4 23.6-1v2.4Z" fill="#00BDD3"/><path opacity=".7" d="m150.1 178.7-23.6 1 .1-2.4 23.6-1v2.4Z" fill="#fff"/><path d="m150 181.9-23.6 1v-2.3l23.7-1-.1 2.3Z" fill="#00BDD3"/><path opacity=".7" d="m150 181.9-23.6 1v-2.3l23.7-1-.1 2.3Z" fill="#fff"/><path d="M117.4 171.3h-1.9v.8h2v-.8Z" fill="#00BDD3"/><path opacity=".5" d="M117.4 171.3h-1.9v.8h2v-.8Z" fill="#fff"/><path d="M117.3 173.5h-1.8v.9l1.9-.1v-.8Z" fill="#00BDD3"/><path opacity=".5" d="M117.3 173.5h-1.8v.9l1.9-.1v-.8Z" fill="#fff"/><path d="m117.3 175.7-2 .1v.8h2v-.9Z" fill="#00BDD3"/><path opacity=".5" d="m117.3 175.7-2 .1v.8h2v-.9Z" fill="#fff"/><path d="M117.2 178h-2l.1.8h1.9v-.8Z" fill="#00BDD3"/><path opacity=".5" d="M117.2 178h-2l.1.8h1.9v-.8Z" fill="#fff"/><path d="m117 180.2-1.8.1v.8l2-.1-.1-.8Z" fill="#00BDD3"/><path opacity=".5" d="M115.2 181v-.7h2l-.1.7h-1.9Z" fill="#fff"/><path d="M117 182.5h-2l.1.8h2l-.1-.8Z" fill="#00BDD3"/><path opacity=".5" d="M117 182.5h-2l.1.8h2l-.1-.8Z" fill="#fff"/><path d="m119.4 169.1-4 1.5.1-1 2.2-.4-2.2-.2v-1l3.9 1.1ZM143.3 165.4l-16.3.7v-1.6l16.4-.7v1.6Z" fill="#00BDD3"/><path opacity=".7" d="m143.3 165.4-16.3.7v-1.6l16.4-.7v1.6Z" fill="#fff"/><path d="m121.2 166.2-2.3.1 1-.6.2.3.3-.3.8.5ZM119.7 165.7l-1 .6.1-1.5 1 .9ZM121.4 164.8v1.4l-1-.6 1-.8Z" fill="#00BDD3"/><path d="M120.1 165.4ZM120 165.4h.1Z" fill="#fff"/><path d="m121.4 164.7-1 .9-.3.3-.3-.3-.9-.8 2.5-.1ZM117.4 165h-1.9v.2h2v-.3ZM117.4 165.5h-1.9v.3h2v-.3ZM117.4 166.1h-1.9v.3h2v-.3ZM227.4 48H216a1.9 1.9 0 1 1 0-3.6h11.4a1.9 1.9 0 1 1 0 3.7Z" fill="#00BDD3"/><path opacity=".7" d="M227.4 48H216a1.9 1.9 0 1 1 0-3.6h11.4a1.9 1.9 0 1 1 0 3.7Z" fill="#fff"/><path d="m269 86.2-43.5 80c-.6 1-1.9 1.3-2.9.8l-74.2-40.2c-1-.5-1.4-1.8-.8-2.8l56.7-104c.5-1 1.8-1.3 2.9-.8l50 27 11.9 40Z" fill="#00BDD3"/><path opacity=".2" d="m269 86.2-43.5 80c-.6 1-1.9 1.3-2.9.8l-74.2-40.2c-1-.5-1.4-1.8-.8-2.8l56.7-104c.5-1 1.8-1.3 2.9-.8l50 27 11.9 40Z" fill="#fff"/><path d="m244.6 104.2-55.4-29.8-1.8 3.4 55.4 29.8 1.8-3.4ZM237 118.1l-55.3-29.7-1.9 3.4 55.4 29.8 1.8-3.5ZM229.5 132.1 174 102.4l-1.9 3.4 55.4 29.7 1.9-3.4ZM257.2 46.2l-13.1 24.1c-.6 1-.2 2.3.8 2.9l24.1 13-11.8-40Z" fill="#00BDD3"/><path opacity=".7" d="m257.2 46.2-13.1 24.1c-.6 1-.2 2.3.8 2.9l24.1 13-11.8-40Z" fill="#fff"/><path d="m280.4 83.5-43.6 80c-.5 1-1.8 1.3-2.8.8L159.8 124c-1-.5-1.4-1.8-.9-2.8l56.7-104c.6-1 1.9-1.3 3-.8l49.9 27 12 40Z" fill="#00BDD3"/><path opacity=".5" d="m280.4 83.5-43.6 80c-.5 1-1.8 1.3-2.8.8L159.8 124c-1-.5-1.4-1.8-.9-2.8l56.7-104c.6-1 1.9-1.3 3-.8l49.9 27 12 40Z" fill="#fff"/><path d="m254.5 100.7-52.4-28.2c-.8-.4-1.9-.1-2.3.7l-.3.5c-.4.8-.1 1.8.7 2.2l52.4 28.2c.9.4 1.9.1 2.3-.7l.3-.4c.4-.9.1-1.9-.7-2.3ZM247 114.7l-52.5-28.2c-.8-.4-1.8-.1-2.3.7l-.2.4c-.5.9-.2 1.9.6 2.3l52.5 28.2c.8.4 1.8.1 2.3-.7l.2-.5c.5-.8.2-1.8-.7-2.2ZM239.4 128.6l-52.5-28.1c-.8-.5-1.8-.2-2.2.6l-.3.5c-.4.8-.1 1.8.7 2.3l52.4 28.1c.8.5 1.8.2 2.3-.6l.2-.5c.5-.8.2-1.8-.6-2.3ZM268.6 43.5l-13.2 24.1c-.5 1-.2 2.3.9 2.9l24 13-11.7-40Z" fill="#00BDD3"/><path opacity=".7" d="m268.6 43.5-13.2 24.1c-.5 1-.2 2.3.9 2.9l24 13-11.7-40Z" fill="#fff"/><path d="m265.6 7 3.6 16.1C255.3 27 243 40.6 234 53.5c-3.5 5.2-6.5 11-8.8 17.4 0 0 28-25.3 43.5-26.8l-.8 26.9s16-31.1 47.2-42.5c0 0-26-18.7-49.4-21.6Z" fill="#F4E041"/><path d="m76.6 184 7 80.6H72.4L64.7 178h5.2c3.5 0 6.4 2.6 6.7 6Z" fill="#00BDD3"/><path opacity=".2" d="m76.7 184.8 7 79.8H72.3L64.7 178h4.5c3.9 0 7.1 3 7.5 6.8Z" fill="#000"/><path d="m69.2 183.2 7.2 81.4h-68l-7-80.4A5.8 5.8 0 0 1 7 178h56.3c3 0 5.5 2.2 5.8 5.2Z" fill="#00BDD3"/><path opacity=".2" d="m69.3 184 7 80.6H8.5l-7-79.3c-.3-4 2.8-7.3 6.8-7.3h54.4c3.5 0 6.4 2.6 6.7 6Z" fill="#fff"/><path d="M188.7 264.6H8.7l-1.9-22.3h172.8a8 8 0 0 1 7.8 7.2l1.3 15.1Z" fill="#00BDD3"/><path opacity=".2" d="M188.7 264.6H8.7l-1.9-22.3h172.8a8 8 0 0 1 7.8 7.2l1.3 15.1Z" fill="#fff"/><path d="M197 273.2H6.6a4.5 4.5 0 1 1 0-9H197a4.5 4.5 0 1 1 0 9Z" fill="#00BDD3"/><path opacity=".2" d="M197 273.2H86.5a4.5 4.5 0 1 1 0-9H197a4.5 4.5 0 1 1 0 9Z" fill="#000"/><path d="m9.1 273.2 2.3 7.6h4.5l2.5-7.6H9Z" fill="#263238"/><path opacity=".5" d="m9.1 273.2 2.3 7.6h4.5l2.5-7.6H9Z" fill="#fff"/><path d="m73.8 273.2 2.2 7.6h4.5l2.5-7.6h-9.2Z" fill="#263238"/><path opacity=".5" d="m73.8 273.2 2.2 7.6h4.5l2.5-7.6h-9.2Z" fill="#fff"/><path d="m123.2 273.2 2.3 7.6h4.5l2.5-7.6h-9.3Z" fill="#263238"/><path opacity=".5" d="m123.2 273.2 2.3 7.6h4.5l2.5-7.6h-9.3Z" fill="#fff"/><path d="m187.9 273.2 2.2 7.6h4.5l2.5-7.6H188Z" fill="#263238"/><path opacity=".5" d="m187.9 273.2 2.2 7.6h4.5l2.5-7.6H188Z" fill="#fff"/><path d="M261.4 150.3a31.2 31.2 0 1 1-62.3 0 31.2 31.2 0 0 1 62.3 0Z" fill="#EA5924"/><path d="m226.2 156.7-5.1-5c-.6-.6-1.5-.6-2 0-.6.5-.6 1.4 0 2l6 6c.6.7 1.6.7 2.1 0l15.5-15.4c.6-.5.6-1.4 0-2-.6-.6-1.5-.6-2 0l-14.5 14.4Z" fill="#fff"/></svg>